<svg xmlns="http://www.w3.org/2000/svg" viewBox="0 0 800 600">
  <rect width="800" height="600" fill="#f5f3ff"/>
  <path d="M78 424h644" stroke="#ddd6fe" stroke-width="8" stroke-linecap="round"/>
  <path d="M124 353l76-96h270l120 90 75 22c29 9 49 36 49 67v15H88v-42c0-27 16-52 41-62l-5 6z" fill="#7c3aed"/>
  <path d="M220 270h112v78H156l64-78zm137 0h104l96 78H357v-78z" fill="#ede9fe"/>
  <rect x="128" y="382" width="545" height="52" rx="22" fill="#5b21b6"/>
  <circle cx="220" cy="437" r="56" fill="#111827"/>
  <circle cx="220" cy="437" r="23" fill="#f3f4f6"/>
  <circle cx="575" cy="437" r="56" fill="#111827"/>
  <circle cx="575" cy="437" r="23" fill="#f3f4f6"/>
  <text x="400" y="540" text-anchor="middle" font-family="Arial, sans-serif" font-size="34" font-weight="700" fill="#4c1d95">Chevrolet Malibu</text>
</svg>
