<svg xmlns="http://www.w3.org/2000/svg" viewBox="0 0 800 600">
  <rect width="800" height="600" fill="#fff7ed"/>
  <path d="M80 423h640" stroke="#fed7aa" stroke-width="8" stroke-linecap="round"/>
  <path d="M142 344l92-98h290l98 96 48 18c28 10 47 37 47 67v20H84v-37c0-34 22-64 54-75l4 9z" fill="#ea580c"/>
  <path d="M250 258h118v86H172l78-86zm142 0h118l79 86H392v-86z" fill="#ffedd5"/>
  <rect x="132" y="374" width="532" height="58" rx="23" fill="#c2410c"/>
  <circle cx="224" cy="433" r="56" fill="#1f2937"/>
  <circle cx="224" cy="433" r="24" fill="#f8fafc"/>
  <circle cx="575" cy="433" r="56" fill="#1f2937"/>
  <circle cx="575" cy="433" r="24" fill="#f8fafc"/>
  <text x="400" y="540" text-anchor="middle" font-family="Arial, sans-serif" font-size="34" font-weight="700" fill="#7c2d12">BYD Song Plus</text>
</svg>
