<svg xmlns="http://www.w3.org/2000/svg" viewBox="0 0 800 600">
  <rect width="800" height="600" fill="#fdf2f8"/>
  <path d="M78 425h644" stroke="#fbcfe8" stroke-width="8" stroke-linecap="round"/>
  <path d="M132 356l85-105h288l112 100 54 18c27 9 45 34 45 62v21H84v-43c0-31 20-58 49-68l-1 15z" fill="#db2777"/>
  <path d="M236 264h122v86H162l74-86zm147 0h110l88 86H383v-86z" fill="#fce7f3"/>
  <rect x="130" y="383" width="538" height="51" rx="21" fill="#9d174d"/>
  <circle cx="222" cy="437" r="56" fill="#111827"/>
  <circle cx="222" cy="437" r="24" fill="#fdf2f8"/>
  <circle cx="578" cy="437" r="56" fill="#111827"/>
  <circle cx="578" cy="437" r="24" fill="#fdf2f8"/>
  <text x="400" y="540" text-anchor="middle" font-family="Arial, sans-serif" font-size="34" font-weight="700" fill="#831843">Mercedes-Benz E 300</text>
</svg>
