<svg xmlns="http://www.w3.org/2000/svg" viewBox="0 0 800 600">
  <rect width="800" height="600" fill="#f4f7fb"/>
  <path d="M80 420h640" stroke="#c8d2df" stroke-width="8" stroke-linecap="round"/>
  <path d="M180 330l70-95h275l95 95 42 18c28 12 48 39 48 70v22H92v-40c0-36 23-67 56-78l32-10z" fill="#2563eb"/>
  <path d="M260 245h112v85H198l62-85zm135 0h115l72 85H395v-85z" fill="#dbeafe"/>
  <rect x="140" y="362" width="520" height="62" rx="24" fill="#1e40af"/>
  <circle cx="230" cy="430" r="54" fill="#111827"/>
  <circle cx="230" cy="430" r="24" fill="#e5e7eb"/>
  <circle cx="570" cy="430" r="54" fill="#111827"/>
  <circle cx="570" cy="430" r="24" fill="#e5e7eb"/>
  <circle cx="650" cy="374" r="14" fill="#fde68a"/>
  <text x="400" y="540" text-anchor="middle" font-family="Arial, sans-serif" font-size="34" font-weight="700" fill="#334155">Chevrolet Cobalt</text>
</svg>
